<?xml version="1.0" encoding="UTF-8"?>
<svg xmlns="http://www.w3.org/2000/svg" viewBox="0 0 252.93 302.33">
  <defs>
    <style>
      .cls-1 {
        fill: #6eb700;
        stroke-width: 0px;
      }
    </style>
  </defs>
  <path class="cls-1" d="m156.1,280.05h-7.45c-3.73,0-7.3-1.49-9.98-4.17s-4.17-6.26-4.17-9.98l.15-50.07c0-6.26,2.53-12.22,7-16.69l89.4-89.26h.45c6.85,0,12.37-5.51,12.37-12.37s-5.51-12.37-12.37-12.37-12.37,5.51-12.37,12.37v1.04l-39.93,39.93v-32.33c0-1.79.75-3.43,1.94-4.77l32.33-32.33c5.96-.3,10.73-5.07,10.73-11.18s-5.07-11.18-11.18-11.18-10.88,4.77-11.18,10.73l-32.33,32.33c-4.32,4.32-6.71,10.13-6.71,16.24v48.58l-28.31,28.16v-92.53l47.09-47.09h.75c6.85,0,12.37-5.51,12.37-12.37s-5.51-12.37-12.37-12.37-12.37,5.51-12.37,12.37v.89l-35.31,35.46V25.99c2.53-2.24,4.17-5.51,4.17-9.24,0-6.85-5.51-12.37-12.37-12.37s-12.37,5.51-12.37,12.37c0,3.73,1.64,7.15,4.32,9.39l-.15,239.45v.3c0,7.75-6.41,14.16-14.16,14.16h-7.45c-4.47,0-8.2,3.73-8.2,8.2s3.73,8.2,8.2,8.2h59.6c4.47,0,8.2-3.73,8.2-8.2-.15-4.47-3.73-8.2-8.34-8.2h0Z"/>
  <path class="cls-1" d="m105.58,246.37V72.48c0-8.2-3.13-15.79-8.94-21.61l-17.88-17.73c.15-.75.3-1.49.3-2.38,0-6.85-5.51-12.37-12.37-12.37s-12.37,5.51-12.37,12.37,5.07,11.92,11.47,12.37l19.37,19.37c2.68,2.68,4.17,6.26,4.17,9.98v79.27l-10.28-10.28v-49.92c0-6.11-2.38-11.92-6.71-16.24l-21.75-19.97c-.3-5.96-5.07-10.73-11.18-10.73s-11.18,5.07-11.18,11.18,4.77,10.88,10.73,11.18l21.46,19.97c1.19,1.19,1.94,2.98,1.94,4.77v33.38l-32.78-32.93c-.3-5.96-5.07-10.73-11.18-10.73s-11.18,5.07-11.18,11.18,4.77,10.88,10.73,11.18l71.23,71.08v21.16l-61.09-60.94v-.75c0-6.85-5.51-12.37-12.37-12.37s-12.37,5.51-12.37,12.37,5.51,12.37,12.37,12.37h.75l43.21,43.21h-11.62c-2.24-2.68-5.51-4.47-9.39-4.47-6.71,0-12.07,5.36-12.07,12.07s5.36,12.07,12.07,12.07c3.73,0,7.15-1.79,9.39-4.47h26.82l14.3,14.3v27.27c0,1.79-.75,3.43-1.94,4.77l-26.97,26.97c-1.19,1.19-2.98,1.94-4.77,1.94h-9.69c-4.47,0-8.2,3.58-8.2,8.2s3.58,8.2,8.2,8.2h9.83c6.11,0,12.07-2.38,16.24-6.71l26.97-26.97c4.32-4.77,6.71-10.58,6.71-16.69h0Z"/>
  <path class="cls-1" d="m71.01,66.97c2.09,0,3.73-1.64,3.73-3.73s-1.64-3.73-3.73-3.73-3.73,1.64-3.73,3.73,1.64,3.73,3.73,3.73Z"/>
  <path class="cls-1" d="m71.61,171.72c2.09,0,3.73-1.64,3.73-3.73s-1.64-3.73-3.73-3.73-3.73,1.64-3.73,3.73c.15,2.09,1.79,3.73,3.73,3.73Z"/>
  <path class="cls-1" d="m77.42,222.68c2.38-2.38,2.38-6.26,0-8.64-2.38-2.38-6.26-2.38-8.64,0-2.38,2.38-2.38,6.26,0,8.64,2.24,2.38,6.11,2.38,8.64,0Z"/>
  <path class="cls-1" d="m21.84,173.8c2.38-2.38,2.38-6.26,0-8.64-2.38-2.38-6.26-2.38-8.64,0-2.38,2.38-2.38,6.26,0,8.64,2.38,2.38,6.26,2.38,8.64,0Z"/>
  <path class="cls-1" d="m185.9,224.02c3.13-1.34,4.62-4.92,3.28-8.05-1.34-3.13-4.92-4.62-8.05-3.28-3.13,1.34-4.62,4.92-3.28,8.05,1.34,3.13,4.92,4.62,8.05,3.28Z"/>
  <path class="cls-1" d="m231.49,163.37c-3.43,0-6.11,2.68-6.11,6.11s2.68,6.11,6.11,6.11,6.11-2.68,6.11-6.11c.15-3.43-2.68-6.11-6.11-6.11Z"/>
  <path class="cls-1" d="m178.89,67.86c2.09,0,3.73-1.64,3.73-3.73s-1.64-3.73-3.73-3.73-3.73,1.64-3.73,3.73,1.64,3.73,3.73,3.73Z"/>
  <path class="cls-1" d="m148.65,106.16c4.17,0,7.45-3.43,7.45-7.45s-3.43-7.45-7.45-7.45-7.45,3.43-7.45,7.45,3.28,7.45,7.45,7.45Z"/>
  <path class="cls-1" d="m148.65,128.51c4.17,0,7.45-3.43,7.45-7.45s-3.43-7.45-7.45-7.45-7.45,3.43-7.45,7.45,3.28,7.45,7.45,7.45Z"/>
  <path class="cls-1" d="m148.65,150.71c4.17,0,7.45-3.43,7.45-7.45s-3.43-7.45-7.45-7.45-7.45,3.43-7.45,7.45,3.28,7.45,7.45,7.45Z"/>
  <path class="cls-1" d="m202.74,103.47c3.43-.6,5.66-3.73,5.07-7.15-.6-3.43-3.73-5.66-7.15-5.07-3.43.6-5.66,3.73-5.07,7.15.6,3.43,3.73,5.66,7.15,5.07Z"/>
  <path class="cls-1" d="m105.73,36.72c1.34-3.13-.15-6.85-3.43-8.05-3.13-1.34-6.85.15-8.05,3.28-1.34,3.13.15,6.85,3.43,8.05,3.13,1.34,6.71-.15,8.05-3.28Z"/>
  <path class="cls-1" d="m150.14,40.44c3.43-.6,5.66-3.73,5.07-7.15-.6-3.43-3.73-5.66-7.15-5.07s-5.66,3.73-5.07,7.15c.6,3.43,3.73,5.51,7.15,5.07Z"/>
  <path class="cls-1" d="m50,101.54c3.13,0,5.51-2.53,5.51-5.51,0-3.13-2.53-5.51-5.51-5.51-3.13,0-5.51,2.53-5.51,5.51-.15,2.98,2.38,5.51,5.51,5.51Z"/>
  <path class="cls-1" d="m236.86,121.8c-6.85,0-12.37,5.51-12.37,12.37v.75l-70.48,70.33c-4.32,4.32-6.71,10.13-6.71,16.24v24.88c0,6.11,2.38,11.92,6.71,16.24l26.23,26.23c4.32,4.32,10.13,6.71,16.24,6.71h12.37c4.47,0,8.2-3.73,8.2-8.2s-3.73-8.2-8.2-8.2h-12.37c-1.79,0-3.43-.75-4.77-1.94l-26.08-25.93c-1.19-1.19-1.94-2.98-1.94-4.77v-24.88c0-1.79.75-3.43,1.94-4.77l12.07-12.07h24.14c2.24,2.68,5.51,4.47,9.39,4.47,6.71,0,12.07-5.36,12.07-12.07s-5.36-12.07-12.07-12.07c-3.73,0-7.15,1.79-9.39,4.47h-9.09l43.21-43.21h.75c6.85,0,12.37-5.51,12.37-12.37.15-6.71-5.36-12.22-12.22-12.22h0Z"/>
</svg>
