<?xml version="1.0" encoding="UTF-8"?>
<svg id="Layer_1" data-name="Layer 1" xmlns="http://www.w3.org/2000/svg" viewBox="0 0 1424.02 208">
  <defs>
    <style>
      .green {
        fill: #6eb700;
      }

      .green, .white {
        stroke-width: 0px;
      }

      .white {
        fill: #fff;
      }
    </style>
  </defs>
  <g transform="translate(200, 0) scale(0.55) translate(-185, 85)">
    <path class="white" d="m212.19,196.8l58.8-118h39.5l58.6,118h-30.9l-11.8-25.5h-71.9l-13,25.5h-29.3Zm49.6-45.2h57.2l-27.5-54.8h-2l-27.7,54.8Z"/>
    <path class="white" d="m361.19,196.8l4-8,34.7-37.1-38.7-44.8h30.5l24.5,31.1h2l24.9-31.1h30.5l-3.2,6.4-36.7,38.3,40,45.2h-30.8l-24.7-30.1h-2l-24.5,30.1h-30.5Z"/>
    <path class="white" d="m491.89,94.2c-5,0-8.6-1-10.8-3-2.3-2-3.4-5.4-3.4-10s1.1-8.2,3.2-10c2.3-2,6-3,11-3s8.8,1,11,3c2.3,1.9,3.4,5.2,3.4,10s-1.1,7.9-3.4,10c-2.2,2-5.9,3-11,3Zm-12.2,102.6v-89.9h24.5v89.9h-24.5Z"/>
    <path class="white" d="m544.89,196.8c-9,0-15.7-1.8-20.1-5.4-4.3-3.6-6.4-9.5-6.4-17.7v-41.2c0-2,.1-4.4.4-7.2.4-2.9,1.3-5.8,2.8-8.6,1.6-2.8,4.2-5.2,7.8-7,3.7-1.9,8.9-2.8,15.5-2.8h55.4c6.7,0,11.8.9,15.5,2.8,3.6,1.9,6.2,4.2,7.6,7,1.6,2.8,2.5,5.7,2.8,8.6.4,2.8.6,5.2.6,7.2v38.5c0,2.4-.2,5.1-.6,8-.3,2.9-1.2,5.8-2.8,8.4-1.6,2.7-4.2,4.9-7.8,6.6-3.6,1.7-8.7,2.6-15.3,2.6h-55.4v.2Zm7.6-17.3h40.2c6.6,0,9.8-2.7,9.8-8v-39.3c0-5.4-3.3-8-9.8-8h-40.2c-6.4,0-9.6,2.7-9.6,8v39.3c0,5.4,3.2,8,9.6,8Z"/>
    <path class="white" d="m638.69,196.8v-89.9h16.5l5,2.4c3.9-.7,8.6-1.2,14.3-1.6,5.6-.5,12.3-.8,20.1-.8h10c3.9,0,7.6.5,11.2,1.6,3.6.9,6.3,2.3,8,4.2,3.5-1.7,8.3-3.1,14.5-4.2s14.2-1.6,24.1-1.6h10c6.7,0,11.8.9,15.5,2.8,3.6,1.9,6.2,4.2,7.6,7,1.6,2.8,2.5,5.7,2.8,8.6.4,2.8.6,5.2.6,7.2v64.2h-24.5v-64.6c0-5.4-3.2-8-9.6-8h-28.1c-2.1,0-3.6.3-4.4.8-.8.5-1.2,1.7-1.2,3.6v68.3h-24.5v-64.6c0-5.4-3.2-8-9.6-8h-27.7c-2.5,0-4.2.3-5,.8-.7.4-1,1.6-1,3.6v68.3h-24.6v-.1Z"/>
    <path class="white" d="m837.89,196.8c-10.2,0-17.5-2.3-22.1-7-4.6-4.8-6.8-11.4-6.8-19.7s2.3-15.4,7-20.1c4.8-4.7,12.1-7,21.9-7h10.2c10,0,19.1.3,27.1.8s14.7,1.1,19.9,1.6v-13.2c0-1.2-.1-2.4-.4-3.6-.3-1.3-1.1-2.4-2.4-3.2-1.3-.8-3.6-1.2-6.8-1.2h-10c-14.6,0-26.8.3-36.5.8-9.8.4-16.4.8-19.9,1.2l-2.2-15.3c0-1.9,5.1-3,15.3-3.4s27.2-.6,51-.6h10c6.7,0,11.8.9,15.5,2.8,3.6,1.9,6.2,4.2,7.6,7,1.6,2.8,2.5,5.7,2.8,8.6.4,2.8.6,5.2.6,7.2v64.2h-16.5l-7.8-4c-5.6.9-12.4,1.9-20.3,2.8-7.9.8-16.9,1.2-27.1,1.2h-10.1v.1Zm5.2-17.3h46c2.9,0,4.7-.3,5.2-.8s.8-2.2.8-5v-15.5h-52c-3.6,0-6.2.9-7.6,2.6-1.3,1.7-2,4.5-2,8.2s.8,6.4,2.4,8c1.6,1.7,4,2.5,7.2,2.5Z"/>
    <path class="white" d="m967.69,196.8c-10.2,0-17.1-2.1-20.9-6.4-3.7-4.3-5.6-10.7-5.6-19.3v-47h-16.5v-17.3h8.4c2.5,0,4.4-.4,5.4-1.2,1.2-.8,2.1-2.4,2.6-4.8l4-21.5h20.5v27.5h41.8v17.3h-41.8v47.2c0,3.3.8,5.6,2.4,6.6,1.6,1.1,4,1.6,7.2,1.6h28.3l2,15.3c-2.8.4-7.1.9-12.8,1.4-5.8.4-12,.6-18.9.6h-6.1Z"/>
    <path class="white" d="m1027.69,94.2c-4.9,0-8.6-1-10.8-3-2.3-2-3.4-5.4-3.4-10s1.1-8.2,3.2-10c2.3-2,6-3,11-3s8.8,1,11,3c2.3,1.9,3.4,5.2,3.4,10s-1.1,7.9-3.4,10c-2.2,2-5.9,3-11,3Zm-12.2,102.6v-89.9h24.5v89.9h-24.5Z"/>
    <path class="white" d="m1080.69,196.8c-6.7,0-11.8-.9-15.5-2.6-3.6-1.7-6.2-3.9-7.8-6.6-1.5-2.7-2.4-5.5-2.8-8.4-.3-2.9-.4-5.6-.4-8v-38.5c0-2,.1-4.4.4-7.2.4-2.9,1.3-5.8,2.8-8.6,1.6-2.8,4.2-5.2,7.8-7,3.8-1.9,8.9-2.8,15.5-2.8h27.9c16.7,0,28.6.5,35.5,1.4,7.1.8,10.6,1.7,10.6,2.6l-4,15.3c-3.7-.3-8.5-.5-14.2-.8-5.8-.4-12-.7-18.7-.8-6.6-.3-13-.4-19.3-.4h-10.2c-6.4,0-9.6,2.7-9.6,8v39.3c-.1,5.4,3.1,8,9.6,8h10.2c7.2,0,14.2-.1,21.1-.2,7-.3,13.3-.5,19.1-.8,5.8-.4,10.4-.7,13.8-1l8,13c0,4.1-13.2,6.2-39.6,6.2h-40.2v-.1Z"/>
    <path class="white" d="m1163.59,207.8v-11h66.2v11h-66.2Z"/>
    <path class="white" d="m1233.89,196.8l58.8-118h39.5l58.6,118h-30.9l-11.8-25.5h-71.9l-13,25.5h-29.3Zm49.6-45.2h57.2l-27.5-54.8h-2l-27.7,54.8Z"/>
    <path class="white" d="m1396.99,196.8v-118h26.5v118h-26.5Z"/>
  </g>
  <g transform="translate(50, 40) scale(0.75)">
    <path class="green" d="m103.6,185.8h-5c-2.5,0-4.9-1-6.7-2.8s-2.8-4.2-2.8-6.7l.1-33.6c0-4.2,1.7-8.2,4.7-11.2l60-59.9h.3c4.6,0,8.3-3.7,8.3-8.3s-3.7-8.3-8.3-8.3-8.3,3.7-8.3,8.3v.7l-26.8,26.8v-21.7c0-1.2.5-2.3,1.3-3.2l21.7-21.7c4-.2,7.2-3.4,7.2-7.5s-3.4-7.5-7.5-7.5-7.3,3.2-7.5,7.2l-21.7,21.7c-2.9,2.9-4.5,6.8-4.5,10.9v32.6l-19,18.9v-62.1l31.6-31.6h.5c4.6,0,8.3-3.7,8.3-8.3s-3.7-8.3-8.3-8.3-8.3,3.7-8.3,8.3v.6l-23.7,23.8V15.3c1.7-1.5,2.8-3.7,2.8-6.2,0-4.6-3.7-8.3-8.3-8.3s-8.3,3.7-8.3,8.3c0,2.5,1.1,4.8,2.9,6.3l-.1,160.7v.2c0,5.2-4.3,9.5-9.5,9.5h-5c-3,0-5.5,2.5-5.5,5.5s2.5,5.5,5.5,5.5h40c3,0,5.5-2.5,5.5-5.5-.1-3-2.5-5.5-5.6-5.5h0Z"/>
    <path class="green" d="m69.7,163.2V46.5c0-5.5-2.1-10.6-6-14.5l-12-11.9c.1-.5.2-1,.2-1.6,0-4.6-3.7-8.3-8.3-8.3s-8.3,3.7-8.3,8.3,3.4,8,7.7,8.3l13,13c1.8,1.8,2.8,4.2,2.8,6.7v53.2l-6.9-6.9v-33.5c0-4.1-1.6-8-4.5-10.9l-14.6-13.4c-.2-4-3.4-7.2-7.5-7.2s-7.5,3.4-7.5,7.5,3.2,7.3,7.2,7.5l14.4,13.4c.8.8,1.3,2,1.3,3.2v22.4l-22-22.1c-.2-4-3.4-7.2-7.5-7.2s-7.5,3.4-7.5,7.5,3.2,7.3,7.2,7.5l47.8,47.7v14.2l-41-40.9v-.5c0-4.6-3.7-8.3-8.3-8.3s-8.3,3.7-8.3,8.3,3.7,8.3,8.3,8.3h.5l29,29h-7.8c-1.5-1.8-3.7-3-6.3-3-4.5,0-8.1,3.6-8.1,8.1s3.6,8.1,8.1,8.1c2.5,0,4.8-1.2,6.3-3h18l9.6,9.6v18.3c0,1.2-.5,2.3-1.3,3.2l-18.1,18.1c-.8.8-2,1.3-3.2,1.3h-6.5c-3,0-5.5,2.4-5.5,5.5s2.4,5.5,5.5,5.5h6.6c4.1,0,8.1-1.6,10.9-4.5l18.1-18.1c2.9-3.2,4.5-7.1,4.5-11.2h0Z"/>
    <path class="green" d="m46.5,42.8c1.4,0,2.5-1.1,2.5-2.5s-1.1-2.5-2.5-2.5-2.5,1.1-2.5,2.5,1.1,2.5,2.5,2.5Z"/>
    <path class="green" d="m46.9,113.1c1.4,0,2.5-1.1,2.5-2.5s-1.1-2.5-2.5-2.5-2.5,1.1-2.5,2.5c.1,1.4,1.2,2.5,2.5,2.5Z"/>
    <path class="green" d="m50.8,147.3c1.6-1.6,1.6-4.2,0-5.8s-4.2-1.6-5.8,0-1.6,4.2,0,5.8c1.5,1.6,4.1,1.6,5.8,0Z"/>
    <path class="green" d="m13.5,114.5c1.6-1.6,1.6-4.2,0-5.8s-4.2-1.6-5.8,0-1.6,4.2,0,5.8c1.6,1.6,4.2,1.6,5.8,0Z"/>
    <path class="green" d="m123.6,148.2c2.1-.9,3.1-3.3,2.2-5.4-.9-2.1-3.3-3.1-5.4-2.2-2.1.9-3.1,3.3-2.2,5.4.9,2.1,3.3,3.1,5.4,2.2Z"/>
    <path class="green" d="m154.2,107.5c-2.3,0-4.1,1.8-4.1,4.1s1.8,4.1,4.1,4.1,4.1-1.8,4.1-4.1c.1-2.3-1.8-4.1-4.1-4.1Z"/>
    <path class="green" d="m118.9,43.4c1.4,0,2.5-1.1,2.5-2.5s-1.1-2.5-2.5-2.5-2.5,1.1-2.5,2.5,1.1,2.5,2.5,2.5Z"/>
    <path class="green" d="m98.6,69.1c2.8,0,5-2.3,5-5s-2.3-5-5-5-5,2.3-5,5,2.2,5,5,5Z"/>
    <path class="green" d="m98.6,84.1c2.8,0,5-2.3,5-5s-2.3-5-5-5-5,2.3-5,5,2.2,5,5,5Z"/>
    <path class="green" d="m98.6,99c2.8,0,5-2.3,5-5s-2.3-5-5-5-5,2.3-5,5,2.2,5,5,5Z"/>
    <path class="green" d="m134.9,67.3c2.3-.4,3.8-2.5,3.4-4.8-.4-2.3-2.5-3.8-4.8-3.4s-3.8,2.5-3.4,4.8,2.5,3.8,4.8,3.4Z"/>
    <path class="green" d="m69.8,22.5c.9-2.1-.1-4.6-2.3-5.4-2.1-.9-4.6.1-5.4,2.2-.9,2.1.1,4.6,2.3,5.4,2.1.9,4.5-.1,5.4-2.2Z"/>
    <path class="green" d="m99.6,25c2.3-.4,3.8-2.5,3.4-4.8-.4-2.3-2.5-3.8-4.8-3.4s-3.8,2.5-3.4,4.8,2.5,3.7,4.8,3.4Z"/>
    <path class="green" d="m32.4,66c2.1,0,3.7-1.7,3.7-3.7,0-2.1-1.7-3.7-3.7-3.7-2.1,0-3.7,1.7-3.7,3.7-.1,2,1.6,3.7,3.7,3.7Z"/>
    <path class="green" d="m157.8,79.6c-4.6,0-8.3,3.7-8.3,8.3v.5l-47.3,47.2c-2.9,2.9-4.5,6.8-4.5,10.9v16.7c0,4.1,1.6,8,4.5,10.9l17.6,17.6c2.9,2.9,6.8,4.5,10.9,4.5h8.3c3,0,5.5-2.5,5.5-5.5s-2.5-5.5-5.5-5.5h-8.3c-1.2,0-2.3-.5-3.2-1.3l-17.5-17.4c-.8-.8-1.3-2-1.3-3.2v-16.7c0-1.2.5-2.3,1.3-3.2l8.1-8.1h16.2c1.5,1.8,3.7,3,6.3,3,4.5,0,8.1-3.6,8.1-8.1s-3.6-8.1-8.1-8.1c-2.5,0-4.8,1.2-6.3,3h-6.1l29-29h.5c4.6,0,8.3-3.7,8.3-8.3.1-4.5-3.6-8.2-8.2-8.2h0Z"/>
  </g>
</svg>